<svg width="52" height="52" viewBox="0 0 52 52" fill="none" xmlns="http://www.w3.org/2000/svg">
<path d="M26.0059 31.8931C29.2694 31.8931 31.915 29.2558 31.915 26.0025C31.915 22.7492 29.2694 20.1118 26.0059 20.1118C22.7424 20.1118 20.0968 22.7492 20.0968 26.0025C20.0968 29.2558 22.7424 31.8931 26.0059 31.8931Z" fill="#42DDD1"/>
<path fill-rule="evenodd" clip-rule="evenodd" d="M31.915 26.0025C31.915 29.2558 29.2694 31.8931 26.0059 31.8931C22.7424 31.8931 20.0968 29.2558 20.0968 26.0025C20.0968 22.7492 22.7424 20.1118 26.0059 20.1118C29.2694 20.1118 31.915 22.7492 31.915 26.0025Z" fill="#42DDD1"/>
<path d="M26.0059 31.8931C29.2694 31.8931 31.915 29.2558 31.915 26.0025C31.915 22.7492 29.2694 20.1118 26.0059 20.1118C22.7424 20.1118 20.0968 22.7492 20.0968 26.0025C20.0968 29.2558 22.7424 31.8931 26.0059 31.8931Z" stroke="#021744" stroke-width="3" stroke-linecap="round" stroke-linejoin="round"/>
<path fill-rule="evenodd" clip-rule="evenodd" d="M31.915 26.0025C31.915 29.2558 29.2694 31.8931 26.0059 31.8931C22.7424 31.8931 20.0968 29.2558 20.0968 26.0025C20.0968 22.7492 22.7424 20.1118 26.0059 20.1118C29.2694 20.1118 31.915 22.7492 31.915 26.0025Z" stroke="#021744" stroke-width="3" stroke-linecap="round" stroke-linejoin="round"/>
</svg>
