<svg width="67" height="54" viewBox="0 0 67 54" fill="none" xmlns="http://www.w3.org/2000/svg">
<path d="M29.7778 5.98891C26.6256 7.78558 24.0771 9.34935 22.1321 10.6802C20.1872 11.9445 18.2087 13.6414 16.1967 15.7708C14.3188 17.7671 12.8769 19.8632 11.8709 22.0591C10.8649 24.2551 10.1607 27.0832 9.75826 30.5434H14.5871C18.7452 30.5434 21.998 31.5749 24.3453 33.6377C26.7598 35.634 27.967 38.5952 27.967 42.5213C27.967 45.3161 26.8939 47.9445 24.7477 50.4066C22.6687 52.8022 19.7848 54 16.0961 54C10.3283 54 6.2037 52.1368 3.72222 48.4104C1.24074 44.6174 0 39.6599 0 33.5379C0 29.2126 0.938939 25.2865 2.81682 21.7597C4.69469 18.1664 6.97497 14.9723 9.65766 12.1774C12.4074 9.31608 15.3248 6.88725 18.4099 4.89094C21.495 2.89464 24.0771 1.26433 26.1562 0L29.7778 5.98891ZM67 5.98891C63.8478 7.78558 61.2993 9.34935 59.3544 10.6802C57.4094 11.9445 55.4309 13.6414 53.4189 15.7708C51.474 17.8336 49.9985 19.963 48.9925 22.159C48.0536 24.2884 47.3829 27.0832 46.9805 30.5434H51.8093C55.9675 30.5434 59.2202 31.5749 61.5676 33.6377C63.982 35.634 65.1892 38.5952 65.1892 42.5213C65.1892 45.3161 64.1161 47.9445 61.97 50.4066C59.8909 52.8022 57.007 54 53.3183 54C47.5506 54 43.4259 52.1368 40.9444 48.4104C38.463 44.6174 37.2222 39.6599 37.2222 33.5379C37.2222 29.2126 38.1612 25.2865 40.039 21.7597C41.9169 18.1664 44.1972 14.9723 46.8799 12.1774C49.6296 9.31608 52.5471 6.88725 55.6321 4.89094C58.7172 2.89464 61.2993 1.26433 63.3784 0L67 5.98891Z" fill="#021744"/>
</svg>
