<svg width="37" height="31" viewBox="0 0 37 31" fill="none" xmlns="http://www.w3.org/2000/svg">
<path d="M12.3367 20.4919C13.8011 20.4919 14.9889 19.3041 14.9889 17.8397C14.9889 16.3753 13.8011 15.1875 12.3367 15.1875C10.8722 15.1875 9.68445 16.3753 9.68445 17.8397C9.68445 19.3041 10.8722 20.4919 12.3367 20.4919Z" fill="#4CFFE9"/>
<path d="M23.7553 20.4919C25.2197 20.4919 26.4075 19.3041 26.4075 17.8397C26.4075 16.3753 25.2197 15.1875 23.7553 15.1875C22.2909 15.1875 21.1031 16.3753 21.1031 17.8397C21.1031 19.3041 22.2909 20.4919 23.7553 20.4919Z" fill="#4CFFE9"/>
<path d="M11.6437 30.6451H24.5434C30.9641 30.6451 36.1871 25.422 36.1871 19.0014C36.1871 12.5808 30.9641 7.35775 24.5434 7.35775H18.8453V5.02772C19.61 4.68277 20.1437 3.91477 20.1437 3.02311C20.1437 1.80928 19.1577 0.823242 17.9439 0.823242C16.73 0.823242 15.744 1.80928 15.744 3.02311C15.744 3.9408 16.307 4.72507 17.1043 5.057V7.361H11.6371C5.22305 7.361 0 12.5841 0 19.0047C0 25.4253 5.22305 30.6483 11.6437 30.6483V30.6451ZM22.5942 25.5977C21.3901 26.6977 19.8508 27.3648 18.1651 27.3648C16.4795 27.3648 14.9402 26.6977 13.7361 25.5977C13.4953 25.3797 13.479 25.0055 13.6971 24.7647C13.9151 24.5238 14.2894 24.5076 14.5302 24.7256C15.539 25.6466 16.8016 26.1835 18.1651 26.1835C19.5287 26.1835 20.7881 25.6466 21.8001 24.7256C22.0409 24.5076 22.4119 24.5238 22.6332 24.7647C22.8512 25.0055 22.835 25.3765 22.5942 25.5977ZM10.5437 12.5255H25.4839C28.4225 12.5255 30.8079 14.9076 30.8079 17.8494C30.8079 20.7912 28.4258 23.1733 25.4839 23.1733H10.5437C7.60515 23.1733 5.21979 20.7912 5.21979 17.8494C5.21979 14.9076 7.6019 12.5255 10.5437 12.5255Z" fill="#EEEBE9"/>
</svg>
