<svg width="34" height="34" viewBox="0 0 34 34" fill="none" xmlns="http://www.w3.org/2000/svg">
<path fill-rule="evenodd" clip-rule="evenodd" d="M17.0035 2.49609C17.818 2.49609 18.6703 2.60937 19.3607 2.86118L19.367 2.86344C19.367 2.86345 19.367 2.86346 19.367 2.86346C19.367 2.86347 19.367 2.86348 19.367 2.86348L26.2277 5.43453C27.1903 5.79448 28.0229 6.52303 28.6116 7.37409C29.2005 8.22525 29.5888 9.26158 29.5888 10.2895V20.5058C29.5888 21.466 29.2767 22.5207 28.8092 23.4501C28.3416 24.3798 27.6801 25.2602 26.909 25.8365L26.9087 25.8368L20.9982 30.249L20.9971 30.2499C19.875 31.093 18.4268 31.4927 17.0138 31.4927C15.6007 31.4927 14.1525 31.0929 13.0304 30.2498L13.0293 30.249L7.11889 25.8368L7.11856 25.8365C6.34744 25.2602 5.68594 24.3798 5.21831 23.4501C4.75081 22.5207 4.43878 21.466 4.43878 20.5058V10.2895C4.43878 9.26158 4.82708 8.22525 5.41589 7.37409C6.0046 6.52308 6.83711 5.79456 7.79968 5.4346L7.79985 5.43453L14.6606 2.86348L14.6613 2.86319C15.3416 2.60912 16.1899 2.49609 17.0035 2.49609ZM15.1866 4.26823L15.1862 4.26838L8.32572 6.83934L8.3252 6.83953C7.70659 7.07083 7.10229 7.57291 6.64948 8.22747C6.19674 8.88193 5.93878 9.62623 5.93878 10.2895V20.5058C5.93878 21.1681 6.16301 21.9902 6.55833 22.7761C6.9535 23.5617 7.48134 24.235 8.01645 24.635L8.01653 24.635L13.9287 29.0485L13.9307 29.05C14.7472 29.6639 15.8629 29.9927 17.0138 29.9927C18.1646 29.9927 19.2803 29.6639 20.0968 29.05L20.0988 29.0485L26.011 24.635L26.0113 24.6349L26.0114 24.6348C26.5464 24.2348 27.0741 23.5616 27.4692 22.7761C27.8645 21.9902 28.0888 21.1681 28.0888 20.5058V10.2895C28.0888 9.62623 27.8308 8.88193 27.378 8.22747C26.9252 7.57291 26.3209 7.07083 25.7023 6.83953L25.7018 6.83934L18.8468 4.27038L18.8439 4.26932C18.3658 4.09553 17.7 3.99609 17.0035 3.99609C16.3047 3.99609 15.6476 4.09613 15.1866 4.26823ZM17 11.5626C14.3766 11.5626 12.25 13.6893 12.25 16.3126C12.25 18.936 14.3766 21.0626 17 21.0626C19.6233 21.0626 21.75 18.936 21.75 16.3126C21.75 13.6893 19.6233 11.5626 17 11.5626ZM10.75 16.3126C10.75 12.8608 13.5482 10.0626 17 10.0626C20.4518 10.0626 23.25 12.8608 23.25 16.3126C23.25 19.7644 20.4518 22.5626 17 22.5626C13.5482 22.5626 10.75 19.7644 10.75 16.3126ZM18.0937 14.5939C18.0937 14.1797 17.7579 13.8439 17.3437 13.8439C16.9295 13.8439 16.5937 14.1797 16.5937 14.5939V15.8726C16.5937 16.0977 16.479 16.2987 16.2934 16.4065C16.2934 16.4065 16.2934 16.4065 16.2934 16.4065C16.2933 16.4064 16.2933 16.4064 16.2933 16.4065L16.2816 16.4135L15.2366 17.046C14.8823 17.2605 14.7689 17.7216 14.9834 18.076C15.1978 18.4303 15.659 18.5437 16.0133 18.3292L17.0531 17.6999C17.716 17.3119 18.0937 16.6076 18.0937 15.8726V14.5939Z" fill="url(#paint0_linear_1668_27532)"/>
<defs>
<linearGradient id="paint0_linear_1668_27532" x1="0.24712" y1="2.49609" x2="33.028" y2="26.8666" gradientUnits="userSpaceOnUse">
<stop stop-color="#4CFFE9"/>
<stop offset="0.706855" stop-color="#185B74"/>
<stop offset="1" stop-color="#021744"/>
</linearGradient>
</defs>
</svg>
