<svg width="286" height="539" viewBox="0 0 286 539" fill="none" xmlns="http://www.w3.org/2000/svg">
<g id="bot-main">
    <ellipse id="left-arm" cx="50.1659" cy="21.7254" rx="50.1659" ry="21.7254" transform="matrix(-0.707107 -0.707107 -0.707107 0.707107 105.613 373.746)" fill="white"/>
    <ellipse id="right-arm" cx="50.1659" cy="21.7254" rx="50.1659" ry="21.7254" transform="matrix(-0.707107 -0.707107 -0.707107 0.707107 285.972 386.884)" fill="white"/>

    <path d="M0.391351 264.429L0.280033 264.61C0.280033 264.61 0.48874 264.665 0.48874 264.658C0.48874 264.651 0.586151 264.477 0.586151 264.477L0.391351 264.429Z" fill="#89BCE4"/>
    <path d="M49.1864 108.903L49.4929 108.833C49.4929 108.833 49.5835 108.527 49.5765 108.527C49.2282 108.422 49.1446 108.596 49.1864 108.896V108.903Z" fill="#89BCE4"/>
    <path d="M220.856 327.984C217.764 322.305 212.214 316.169 208.749 313.351C207.428 312.276 206.059 311.323 206.059 311.323C203.64 309.639 201.089 308.223 198.41 307.041C195.19 305.623 191.819 304.561 188.329 303.779C182.082 302.378 175.799 302.245 169.463 302.258C162.982 302.273 156.501 302.268 150.02 302.263C138.991 302.255 127.962 302.246 116.933 302.339C114.452 302.36 111.97 302.835 109.494 303.308C108.582 303.482 107.671 303.656 106.762 303.807C104.936 304.112 103.124 304.527 101.332 304.995C100.334 305.255 99.3647 305.675 98.4269 306.114C97.837 306.389 97.2435 306.659 96.6499 306.929C94.8167 307.763 92.9821 308.598 91.2479 309.602C81.4632 315.276 75.5503 324.801 75.5503 324.801C75.2771 325.245 74.1187 327.133 72.9865 329.602C71.027 333.871 67.5333 343.369 68.9439 358.224C69.2486 360.118 69.7845 363.183 70.6513 366.937C71.3788 370.084 71.8048 371.578 72.3636 373.539C72.7834 375.012 73.2781 376.748 74.032 379.645C74.4227 381.148 74.7862 382.658 75.1498 384.167C75.5367 385.774 75.9237 387.381 76.3436 388.981C76.5767 389.868 76.8618 390.741 77.1468 391.615C77.4239 392.464 77.701 393.313 77.9301 394.174C78.1573 395.026 78.3373 395.891 78.5172 396.756C78.6971 397.621 78.8771 398.486 79.1043 399.338C79.4286 400.546 79.8161 401.738 80.2037 402.93C80.3749 403.456 80.5461 403.982 80.7119 404.51C80.8388 404.915 80.9613 405.322 81.0839 405.729C81.3547 406.629 81.6256 407.529 81.9439 408.411C82.3398 409.506 82.7927 410.581 83.2454 411.655C83.3424 411.886 83.4393 412.116 83.5357 412.346C83.7075 412.756 83.8736 413.169 84.0397 413.583C84.4779 414.673 84.9163 415.764 85.4611 416.798C85.9198 417.669 86.3698 418.546 86.82 419.423C88.2878 422.283 89.7572 425.146 91.5342 427.802C94.4053 432.094 97.5785 436.21 100.917 440.153C105.117 445.11 110.108 449.268 115.391 453.045C117.395 454.48 119.491 455.793 121.627 457.025C123.5 458.105 125.43 459.121 127.432 459.928C129.437 460.735 131.532 461.331 133.616 461.925L133.915 462.011C136.142 462.649 138.393 463.198 140.647 463.739C141.359 463.91 142.108 463.994 142.838 464.002C143.335 464.006 143.833 464.011 144.33 464.016C146.897 464.043 149.466 464.07 152.029 463.973C152.906 463.94 153.774 463.715 154.643 463.489C155.036 463.387 155.43 463.285 155.825 463.2C155.906 463.183 155.986 463.16 156.067 463.137C156.241 463.088 156.415 463.039 156.589 463.043C158.776 463.089 160.772 462.337 162.751 461.592C163.363 461.361 163.974 461.131 164.588 460.926C166.211 460.384 167.74 459.569 169.272 458.752C170.168 458.275 171.064 457.798 171.979 457.374C176.542 455.268 180.474 452.234 184.386 449.147C189.335 445.244 193.603 440.663 197.509 435.761C199.742 432.961 201.73 429.945 203.643 426.912C205.547 423.888 207.352 420.786 208.951 417.592C209.873 415.751 210.602 413.814 211.33 411.878C211.605 411.149 211.879 410.42 212.164 409.696C212.348 409.228 212.534 408.761 212.72 408.294C213.442 406.482 214.164 404.669 214.77 402.819C215.133 401.709 215.372 400.558 215.61 399.408C215.731 398.827 215.852 398.246 215.989 397.67C216.267 396.496 216.553 395.322 216.871 394.156C217.169 393.064 217.479 391.976 217.789 390.887C218.01 390.113 218.231 389.338 218.447 388.563C218.447 388.563 218.965 386.717 219.571 384.436C219.571 384.436 220.782 379.882 221.828 374.935C228.694 342.395 220.845 327.982 220.845 327.982L220.856 327.984Z" fill="#E6E6E6"/>
    <path d="M220.856 327.984C217.764 322.305 212.214 316.169 208.749 313.351C207.428 312.276 206.059 311.323 206.059 311.323C203.64 309.639 201.089 308.223 198.41 307.041C195.19 305.623 191.819 304.561 188.329 303.779C182.082 302.378 175.799 302.245 169.463 302.258C162.982 302.273 156.501 302.268 150.02 302.263C138.991 302.255 127.962 302.246 116.933 302.339C114.452 302.36 111.97 302.835 109.494 303.308C108.582 303.482 107.671 303.656 106.762 303.807C104.936 304.112 103.124 304.527 101.332 304.995C100.334 305.255 99.3647 305.675 98.4269 306.114C97.837 306.389 97.2435 306.659 96.6499 306.929C94.8167 307.763 92.9821 308.598 91.2479 309.602C81.4632 315.276 75.5503 324.801 75.5503 324.801C75.2771 325.245 74.1187 327.133 72.9865 329.602C71.027 333.871 67.5333 343.369 68.9439 358.224C69.2486 360.118 69.7845 363.183 70.6513 366.937C71.3788 370.084 71.8048 371.578 72.3636 373.539C72.7834 375.012 73.2781 376.748 74.032 379.645C74.4227 381.148 74.7862 382.658 75.1498 384.167C75.5367 385.774 75.9237 387.381 76.3436 388.981C76.5767 389.868 76.8618 390.741 77.1468 391.615C77.4239 392.464 77.701 393.313 77.9301 394.174C78.1573 395.026 78.3373 395.891 78.5172 396.756C78.6971 397.621 78.8771 398.486 79.1043 399.338C79.4286 400.546 79.8161 401.738 80.2037 402.93C80.3749 403.456 80.5461 403.982 80.7119 404.51C80.8388 404.915 80.9613 405.322 81.0839 405.729C81.3547 406.629 81.6256 407.529 81.9439 408.411C82.3398 409.506 82.7927 410.581 83.2454 411.655C83.3424 411.886 83.4393 412.116 83.5357 412.346C83.7075 412.756 83.8736 413.169 84.0397 413.583C84.4779 414.673 84.9163 415.764 85.4611 416.798C85.9198 417.669 86.3698 418.546 86.82 419.423C88.2878 422.283 89.7572 425.146 91.5342 427.802C94.4053 432.094 97.5785 436.21 100.917 440.153C105.117 445.11 110.108 449.268 115.391 453.045C117.395 454.48 119.491 455.793 121.627 457.025C123.5 458.105 125.43 459.121 127.432 459.928C129.437 460.735 131.532 461.331 133.616 461.925L133.915 462.011C136.142 462.649 138.393 463.198 140.647 463.739C141.359 463.91 142.108 463.994 142.838 464.002C143.335 464.006 143.833 464.011 144.33 464.016C146.897 464.043 149.466 464.07 152.029 463.973C152.906 463.94 153.774 463.715 154.643 463.489C155.036 463.387 155.43 463.285 155.825 463.2C155.906 463.183 155.986 463.16 156.067 463.137C156.241 463.088 156.415 463.039 156.589 463.043C158.776 463.089 160.772 462.337 162.751 461.592C163.363 461.361 163.974 461.131 164.588 460.926C166.211 460.384 167.74 459.569 169.272 458.752C170.168 458.275 171.064 457.798 171.979 457.374C176.542 455.268 180.474 452.234 184.386 449.147C189.335 445.244 193.603 440.663 197.509 435.761C199.742 432.961 201.73 429.945 203.643 426.912C205.547 423.888 207.352 420.786 208.951 417.592C209.873 415.751 210.602 413.814 211.33 411.878C211.605 411.149 211.879 410.42 212.164 409.696C212.348 409.228 212.534 408.761 212.72 408.294C213.442 406.482 214.164 404.669 214.77 402.819C215.133 401.709 215.372 400.558 215.61 399.408C215.731 398.827 215.852 398.246 215.989 397.67C216.267 396.496 216.553 395.322 216.871 394.156C217.169 393.064 217.479 391.976 217.789 390.887C218.01 390.113 218.231 389.338 218.447 388.563C218.447 388.563 218.965 386.717 219.571 384.436C219.571 384.436 220.782 379.882 221.828 374.935C228.694 342.395 220.845 327.982 220.845 327.982L220.856 327.984Z" stroke="#00E1E1"/>
    <rect x="6.13982" y="-6.13982" width="265.498" height="160.389" rx="80.1943" transform="matrix(-1 0 0 1 285.112 131.167)" fill="#E6E6E6" stroke="#E6E6E6" stroke-width="12.2796"/>
    <rect width="208.466" height="86.7442" rx="43.3721" transform="matrix(-1 0 0 1 251.1 152.439)" fill="#021744"/>
    <path d="M193.107 217.353C181.169 217.353 171.491 207.675 171.491 195.737C171.491 183.799 181.169 174.121 193.107 174.121C205.045 174.121 214.723 183.799 214.723 195.737C214.723 207.675 205.045 217.353 193.107 217.353Z" fill="#4CFFE9"/>
    <path d="M100.062 217.353C88.1241 217.353 78.4462 207.675 78.4462 195.737C78.4462 183.799 88.1241 174.121 100.062 174.121C112.001 174.121 121.678 183.799 121.678 195.737C121.678 207.675 112.001 217.353 100.062 217.353Z" fill="#4CFFE9"/>
    <rect width="75.2489" height="15.5276" rx="7.76378" transform="matrix(-1 0 0 1 184.445 109.673)" fill="white"/>
    <path d="M147.171 118.352V77.4209" stroke="white" stroke-width="8.35698" stroke-miterlimit="10"/>
    <path d="M112.779 255.392C121.802 263.618 133.215 268.53 145.626 268.53C158.037 268.53 169.45 263.618 178.473 255.392" stroke="#021744" stroke-width="8.35698" stroke-miterlimit="10" stroke-linecap="round"/>
    <g id="head-red" filter="url(#filter0_d_3200_15657)">
    <path d="M147.417 92.951C137.522 92.951 129.501 84.9295 129.501 75.0346C129.501 65.1396 137.522 57.1182 147.417 57.1182C157.312 57.1182 165.334 65.1396 165.334 75.0346C165.334 84.9295 157.312 92.951 147.417 92.951Z" fill="#4CFFE9"/>
    </g>
</g>

<g id="base-plan" filter="url(#filter1_f_3200_15657)">
<ellipse cx="110.448" cy="17.1503" rx="110.448" ry="17.1503" transform="matrix(-1 0 0 1 258.054 487.114)" fill="black" fill-opacity="0.4"/>
</g>
<defs>
<filter id="filter0_d_3200_15657" x="73.3176" y="0.934814" width="148.2" height="148.2" filterUnits="userSpaceOnUse" color-interpolation-filters="sRGB">
<feFlood flood-opacity="0" result="BackgroundImageFix"/>
<feColorMatrix in="SourceAlpha" type="matrix" values="0 0 0 0 0 0 0 0 0 0 0 0 0 0 0 0 0 0 127 0" result="hardAlpha"/>
<feOffset/>
<feGaussianBlur stdDeviation="28.0917"/>
<feComposite in2="hardAlpha" operator="out"/>
<feColorMatrix type="matrix" values="0 0 0 0 0.298039 0 0 0 0 1 0 0 0 0 0.913725 0 0 0 1 0"/>
<feBlend mode="normal" in2="BackgroundImageFix" result="effect1_dropShadow_3200_15657"/>
<feBlend mode="normal" in="SourceGraphic" in2="effect1_dropShadow_3200_15657" result="shape"/>
</filter>
<filter id="filter1_f_3200_15657" x="19.7581" y="469.714" width="255.696" height="69.1008" filterUnits="userSpaceOnUse" color-interpolation-filters="sRGB">
<feFlood flood-opacity="0" result="BackgroundImageFix"/>
<feBlend mode="normal" in="SourceGraphic" in2="BackgroundImageFix" result="shape"/>
<feGaussianBlur stdDeviation="8.7" result="effect1_foregroundBlur_3200_15657"/>
</filter>
</defs>
</svg>
