<svg width="36" height="50" viewBox="0 0 36 50" fill="none" xmlns="http://www.w3.org/2000/svg">
<path d="M18 17.4167V24.6389L22.3333 28.25" fill="#42DDD1"/>
<path d="M18 41.25C26.9746 41.25 34.25 33.9746 34.25 25C34.25 16.0254 26.9746 8.75 18 8.75C9.02537 8.75 1.75 16.0254 1.75 25C1.75 33.9746 9.02537 41.25 18 41.25Z" fill="#42DDD1"/>
<path d="M18 17.4167V24.6389L22.3333 28.25M11.5 2.25H24.5M11.5 47.75H24.5M34.25 25C34.25 33.9746 26.9746 41.25 18 41.25C9.02537 41.25 1.75 33.9746 1.75 25C1.75 16.0254 9.02537 8.75 18 8.75C26.9746 8.75 34.25 16.0254 34.25 25Z" stroke="#021744" stroke-width="3" stroke-linecap="round" stroke-linejoin="round"/>
</svg>
